# xmcd
#
# Track frame offsets: 
#        150
#        11308
#        21121
#        39158
#        65068
#        100823
#        117205
#        129186
#        142189
#        155489
#        173240
#        183530
#        193156
#        203894
#        220901
#        230994
#        242187
#        254225
#        268870
#        279667
#
# Disc length: 3894 seconds
#
# Revision: 0
# Processed by: cddbd v1.5.1PL0 Copyright (c) Steve Scherf et al.
# Submitted via: ExactAudioCopy v0.95a5
#
DISCID=350f3414
DTITLE=John Lee Hooker - Real Gold
DYEAR=2003
DGENRE=Blues
TTITLE0=Boom Boom
TTITLE1=Dimples
TTITLE2=House Rent Boogie
TTITLE3=Drug Store Woman
TTITLE4=T.B. Sheets
TTITLE5=Mama, You Got A Daughter
TTITLE6=Frisco
TTITLE7=I'm So Excited
TTITLE8=Whiskey And Wimmen
TTITLE9=Wednesday Evenin' Blues
TTITLE10=Old Time Shimmy
TTITLE11=Onions
TTITLE12=Send Me Your Pillow
TTITLE13=Process
TTITLE14=I Wanna Walk
TTITLE15=You've Taken My Woman
TTITLE16=I'm Mad Again
TTITLE17=Moanin' Blues
TTITLE18=Tennessee Blues
TTITLE19=Rosie Mae
EXTD=
EXTT0=
EXTT1=
EXTT2=
EXTT3=
EXTT4=
EXTT5=
EXTT6=
EXTT7=
EXTT8=
EXTT9=
EXTT10=
EXTT11=
EXTT12=
EXTT13=
EXTT14=
EXTT15=
EXTT16=
EXTT17=
EXTT18=
EXTT19=
PLAYORDER=
